<svg version="1.2" xmlns="http://www.w3.org/2000/svg" viewBox="0 0 558 429" width="558" height="429">
	<title>g6217</title>
	<style>
		.s0 { fill: #f1dc3b } 
		.s1 { fill: #7dbf34 } 
		.s2 { fill: #000000 } 
		.s3 { fill: #5a8a26 } 
		.s4 { fill: #eabb3f } 
		.s5 { fill: #b59131 } 
		.s6 { fill: #ccba32 } 
		.s7 { fill: #3a5919 } 
		.s8 { fill: #f7e4b2 } 
		.s9 { fill: #c5e2a4 } 
		.s10 { fill: #0a1724 } 
	</style>
	<g id="g6217">
		<path id="path6219" class="s0" d="m18.9 272.7c-7.4-3.8-16.5-14.6-9-22.6 6-6.4 20.4-4.7 28.4-5.1 10.3-0.5 20.7-0.7 31-0.9q15.5-0.3 31-0.3c9.1 0 18.4 0.6 27.6 0.1q-3.1 3.2-5.9 6.7c-6.1 7.8-11.1 16.2-14.9 25.1-19.9 0-39.7 0.6-59.6 1-9.5 0.2-19.9 0.5-28.6-4z"/>
		<path id="path6221" class="s1" d="m100.8 344.9c-3.5-0.1-7 0.3-10.4 0.4-5.8 0.1-11.5 0.3-17.3 0.4-11.3 0.3-23.4 0.3-33.4-5.9-11.3-6.9-12.2-17.6-12.7-29.8-0.2-5.8-0.4-11.5-0.7-17.3-0.2-3.6-0.2-7.2-1-10.7 2.4 0.6 4.8 1 7.1 1.3 12.3 1.1 24.9-0.1 37.2-0.4 11.7-0.2 23.4-0.6 35.1-1.1-7.2 20.2-8.6 42.2-3.9 63.1z"/>
		<path id="path6223" class="s1" d="m17.3 177.5c-2-21-3.4-42-4.9-63.1-1.5-20.1-3.6-40.3-4.4-60.5-0.3-9.5 1.1-19.4 10.3-24.3 6.8-3.6 14.4-2.7 21.8-3.8 12.3 1.6 24.8 1.2 37.3 1.2q21.8-0.1 43.6-0.2c28.7-0.1 57.4-0.3 86-0.8 56.5-1.1 113.1-0.7 169.6-1 26-0.2 52-0.3 78-1.4 4.1 0.4 8.2 0.6 12.3 1.3 3 0.5 5.6 1.7 8.4 0.8 18.3 4.3 15.8 28.7 14.6 43.4q-2.2 28.6-4.4 57.2c-1.5 19-3 38.1-4.4 57.2-1.3 18.1-3.5 36.5-3.6 54.8-14.9-1.5-30.5-0.2-45.5-0.1q-24.3 0.2-48.6 0.5c-35.1 0.3-70.2 0.6-105.3 1.2-10.5-10.4-23.2-18.7-37.6-24-37.5-13.6-79.3-3.5-107.8 23.1-12.2-2-25-1.3-37.4-1.4q-19.8 0-39.6 0.5c-11.3 0.3-22.7 0.1-33.9 1 0.3-10.6-1.1-21.4-1.9-31.9-0.7-9.9-1.6-19.8-2.6-29.7z"/>
		<path id="path6225" class="s2" d="m220.1 332.8c-9.1 5.5-23.3 4.7-29.8-4.7-5.4-8.1-3.1-17.4 2.1-24.6 7.2-5.1 15.6-7.3 24.7-2.6 12.6 6.5 16.3 23.9 3 31.9z"/>
		<path id="path6227" class="s0" d="m498.6 305.9q0.1 3.8 0.4 7.6-0.1 0-0.2 0c-7.5-0.8-16.6-1-24.4 0.3q0.4-2 0.8-4 0.4-2.5 0.8-5c3.6 1 7.1 1 10.9 1.1 3.9 0.2 7.9 0.7 11.7 0z"/>
		<path id="path6229" class="s3" d="m469.8 309.5c-1.5 8.1-2.9 17.4-6.8 24.7-4.3 8.1-13.8 9.9-22.2 10.5-8.7 0.6-17.4 0.8-26.1 1-18.3 0.5-36.6 0.8-54.9 0.7q-13.7 0-27.4-0.4c-8.2-0.1-16.7-1-25-0.7 2.2-8.8 3.5-17.8 3.5-27-0.1-12.3-2.2-24.4-6.1-35.8 30.8 1.1 61.7 1.8 92.6 1.5q24.7-0.3 49.3-1.1c8.2-0.2 17.4 0.2 26-0.9-0.5 9.3-1.3 18.4-2.9 27.5z"/>
		<path id="path6231" fill-rule="evenodd" class="s4" d="m300.1 348.6c-8.9 31-31.4 57.4-62.9 68.3-39.6 13.7-83.9-0.2-109.8-32.8-26.7-33.8-30-82.2-8.2-119.2 21.3-36.2 64.2-55.5 105.4-46.4 47.1 10.5 79.2 54.3 79.5 101.7 0 9.1-1.3 18-3.6 26.7-0.3 0.5-0.5 1.1-0.4 1.7zm-77.4-50.3c-12.2-9-33.4-6.8-39.9 8.4-0.4 1-0.1 2.1 0.7 2.7q-0.3 1-0.4 2.1c-1.7 6.5-0.5 14.1 2.7 19.2 8.3 12.9 27.6 13.8 39.2 5.2 13.1-9.8 10.3-28.5-2.3-37.6z"/>
		<path id="path6233" class="s0" d="m517.4 304c0.4 3.8 0.8 7.7 0.7 11.5 0 3.7-3.2 15.8-10 11.9-3.1-1.8-3.5-6.8-3.9-9.9-0.4-3.5-0.7-6.9-1.1-10.4 0.5-2.6-0.3-4.8-0.4-7.7-0.1-5.3 5-16.4 11.6-8.6 2.4 2.8 2.6 8.1 3 11.6-0.2 0.5-0.2 1.1 0.1 1.6z"/>
		<path id="path6235" class="s0" d="m528 309.8q0 2.6 0.5 4.7-0.1 0-0.2 0c-2.9 0-5.6 0.3-8.4 0.7 0.1-1.6 0.1-3.1 0.2-4.5 0.1-1.5 0.3-3.4 0.4-5.6 1 0.2 2.1 0.4 3.3 0.4 1.5 0.1 3.1 0.2 4.6-0.1q-0.5 2.3-0.4 4.4z"/>
		<path id="path6237" class="s2" d="m222.7 298.3c12.6 9.1 15.4 27.8 2.3 37.6-11.6 8.6-30.9 7.7-39.2-5.2-3.2-5.1-4.4-12.7-2.7-19.2q0.1-1.1 0.4-2.1c-0.8-0.6-1.1-1.7-0.7-2.7 6.5-15.2 27.7-17.4 39.9-8.4z"/>
		<path id="path6239" class="s3" d="m100.8 344.9c-3.5-0.1-7 0.3-10.4 0.4-5.8 0.1-11.5 0.3-17.3 0.4-11.3 0.3-23.4 0.3-33.4-5.9-11.3-6.9-12.2-17.6-12.7-29.8-0.2-5.8-0.4-11.5-0.7-17.3-0.2-3.6-0.2-7.2-1-10.7 2.4 0.6 4.8 1 7.1 1.3 12.3 1.1 24.9-0.1 37.2-0.4 11.7-0.2 23.4-0.6 35.1-1.1-7.2 20.2-8.6 42.2-3.9 63.1z"/>
		<path id="path6241" class="s3" d="m159.4 220.7c-9.7 4.7-18.7 10.9-26.7 18.3-12.2-2-25-1.3-37.4-1.4q-19.8 0-39.6 0.5c-11.3 0.2-22.7 0.1-33.9 0.9 0.3-10.5-1.1-21.3-1.9-31.8-0.7-9.9-1.6-19.8-2.6-29.7-2-21-3.4-42-4.9-63.1-1.5-20.1-3.6-40.3-4.4-60.5-0.3-9.5 1.1-19.4 10.3-24.3 2.3-1.2 4.7-1.9 7.2-2.3 6.1 17.6 13.5 34.7 22 51.3 27.6 54 66.1 102.4 111.9 142.1z"/>
		<path id="path6243" class="s5" d="m195.9 421.6c-26.4-2.7-51.4-16.1-68.5-37.5-26.7-33.8-30-82.2-8.2-119.2 5.4-9.2 12.1-17.2 19.9-24-7 22.1-9.4 45.6-6.1 69.9 5.9 43.5 29.9 82.5 62.9 110.8z"/>
		<g id="Layer">
			<path id="path6245" class="s6" d="m495.5 261.7q0.3 0 0.6 0c-1.8 7.6-9.2 11.4-16.2 12.8-13 2.6-27.4 1.7-40.6 2.1q-20.9 0.6-41.9 0.8c-31.6 0.3-63.3 0.1-94.9-0.9-2.3-5.7-5.1-11.1-8.3-16.3 10-0.2 20.1-0.6 30.1-0.9 25.2-0.6 50.2-0.4 75.3 0.5 24.9 0.8 49.7 2.4 74.5 2.2 7.2-0.1 14.3-0.2 21.4-0.3z"/>
			<path id="path6247" class="s6" d="m112.9 264.1c-2.1 3.8-4.1 7.6-5.8 11.6-19.9 0-39.7 0.6-59.6 1-9.5 0.2-19.9 0.5-28.6-4-4.3-2.2-9.1-6.8-11-11.8 3.8 0.4 7.6 0.4 11.5 0.3 17.6 1 35.3 1.6 52.9 2.1q18.3 0.5 36.6 0.7 2 0.1 4 0.1z"/>
			<path id="path6249" class="s6" d="m498.7 307q0 3.3 0.3 6.5-0.1 0-0.2 0c-7.5-0.8-16.5-1-24.4 0.3q0.4-2 0.8-4 0-0.1 0-0.3c4.8-0.2 9.7-0.5 14.4-1.1 2.9-0.3 5.9-0.8 9.1-1.4z"/>
			<path id="path6251" class="s6" d="m517.8 307.9c0.2 2.5 0.4 5.1 0.3 7.6 0 3.7-3.3 15.8-10 11.9-3.1-1.8-3.5-6.8-3.9-9.9-0.4-3.5-0.7-6.9-1.1-10.4q0.1-0.5 0.1-1.1 2.9-0.7 5.9-1.6c2.8 1.4 5.7 2.6 8.7 3.5z"/>
			<path id="path6253" class="s6" d="m528 309.8q0 2.7 0.5 4.7-0.1 0-0.2 0c-2.9 0-5.6 0.3-8.4 0.7 0.1-1.6 0.1-3.1 0.2-4.5q0.1-0.9 0.2-2.1c2.5 0.6 5.1 1 7.7 1q0 0.1 0 0.2z"/>
		</g>
		<path id="path6255" class="s7" d="m469.6 293.3c-29.8 1.5-59.5 2.1-89.3 2.1q-22.4 0.1-44.7-0.6c-7.4-0.2-15 0-22.3-0.9-2.9-0.3-6.7-0.7-9.9-1.8-0.7-3.9-1.4-7.8-2.1-11.7q0-0.5-0.2-0.9c8-3.5 24.5-2.3 28.3-2.3 15.3 0.1 30.6 0.1 45.9 0.2 31.4 0.1 62.9-0.4 94.3-1 10.9-0.2 10.8 16.4 0 16.9z"/>
		<path id="path6257" class="s7" d="m88.8 297.9q0.2-0.5 0.4-0.9-1.2 0-2.4 0-1.2 0.1-2.4 0-0.4 0-0.9-0.1-13.2-0.2-26.4-0.5c-6.3-0.1-12.5-0.4-18.8-0.7-2.9-0.2-6.2 0.1-9.1-0.6-2.6-0.6-4.3-2.3-6.7-3-3.1-0.8-3.3-5.7 0-6.4 2.4-0.6 4.1-2.2 6.7-2.7 2.9-0.6 6.2-0.3 9.1-0.3 6.3-0.1 12.5-0.2 18.8 0q15.3 0.3 30.6 0.6 0.7-0.2 1.4-0.5c1.5-0.4 2.9-1 4.4-1.4 1.8-0.5 2.9-0.3 4.8-0.1 1.9 0.2 3.5 1.3 4.3 2.7 1.8 0.7 3.1 2.8 2.6 4.8-1.1 5.1-2.5 9.5-4.2 14.5-1.6 5-2.5 10.1-2.7 15.3-0.1 5.1 0.3 10.3 1.5 15.3 1.1 5 3.1 9.6 3.6 14.7 0.1 1.2-0.2 2.2-0.7 3.1-1.5-0.7-3.1-1.1-4.7-1.4-2.5-0.8-5.2-1.1-8-1.2-6-8.9-6.8-22.6-5.8-32.5 0.7-6.4 2.1-12.7 4.6-18.7z"/>
		<path id="path6259" class="s8" d="m273.3 302c-1.3 2.3-4.7 1.7-5.4-0.7-2.3-7.7-3.6-15.4-7.3-22.6-3.8-7.4-9.5-13.8-16.6-18.3-15.6-9.8-34.9-11-52.8-8.7-3.9 0.5-4.2-5.4-0.9-6.5 20.5-6.8 44.9-6.4 63.1 6.6 14.4 10.3 29.8 32.2 19.9 50.2z"/>
		<path id="path6261" class="s9" d="m490 96.1c0.1 8.1 1.8 18.3-0.9 26-0.5 1.4-2.3 1.4-2.8 0-2.9-7.7-1.9-17.7-2.8-26-0.9-8.9-1.6-17.2-0.3-26 0.1-0.7 0.6-1 1.1-1.1 0.6-7.4 0.3-17.4-3.4-23.5-5.8-9.6-17.2-8-26.9-8.1-24.8-0.4-49.5-0.3-74.2-0.4q-37.7-0.2-75.5-0.5c-24-0.1-48.4 0.6-72.2-3.4-1.7-0.3-1.7-3.2 0-3.5 23.4-3.7 47.4-3 71-3q64.9 0.1 129.8 0.2c10.6 0 21.1-0.2 31.7-0.1 7.6 0 15.3 1.1 21.1 6.6 10.6 10 6.6 26.3 4.1 38.5-0.3 1.3-1.3 1.9-2.4 2.1 2.1 7.2 2.6 14.5 2.6 22.2z"/>
		<path id="path6263" class="s10" d="m228.3 315c-0.1 4.5-5.7 5.8-8.1 2.2-2.3-3.4-3.4-6.3-7.4-8.2-3.6-1.6-7.6-1.2-10.9-3.3-1.3-0.8-1.5-2.5-0.5-3.6 8.3-8.7 27.4 1.7 26.9 12.9z"/>
		<path id="path6265" fill-rule="evenodd" class="s2" d="m225 335.9c-11.6 8.6-30.9 7.7-39.1-5.2-3.3-5.1-4.5-12.7-2.8-19.2q0.1-1.1 0.4-2.1c-0.7-0.6-1.1-1.7-0.7-2.7 6.5-15.1 27.7-17.4 39.9-8.4 12.6 9.1 15.4 27.8 2.3 37.6zm-7.9-35c-9.1-4.7-17.5-2.5-24.7 2.6-5.2 7.2-7.5 16.5-2 24.6 6.4 9.5 20.6 10.2 29.7 4.7 13.3-8 9.6-25.4-3-31.9z"/>
		<path id="path6267" fill-rule="evenodd" class="s2" d="m393.2 19.1c20.3 0 40.6 0.2 60.8 0.9 4.3-1.1 8.5-1.1 12.9-0.6 1.6 0.2 3.4 0.3 5 0.7q0.4-0.1 0.7-0.1c15.8-0.5 23.5 16.5 24.2 29.8 0.5 10.1-0.9 20.4-1.7 30.5q-1.2 16.1-2.4 32.3c-1.7 22-3.3 43.9-5 65.9-1.6 20-2.3 40.5-5.3 60.5 8.8 1.8 17.1 6.7 19.3 16.2 2.6 11-6.4 19.8-15.7 23.6-2.5 1-5.1 1.8-7.8 2.4q0.1 0.2 0.1 0.5c-0.2 6.8-0.9 13.7-1.9 20.5 3.5-0.9 6.8-0.8 10.5-0.9 3.6 0 7.4-0.5 11 0.1-0.4-2.8-0.1-5.7 0.9-8.4q0-0.3 0.2-0.6c1.7-4.6 5.3-8.3 10.4-8.5 8.9-0.4 10.9 8.7 11.1 17 1.1-0.2 2.1-0.4 3.3-0.4 1.8-0.1 3.8-0.3 5.6 0.3 0.1 0 0.2 0.1 0.4 0.2 1.8-4.4 4.9-8.1 8.8-9.8l3.6-0.9q1.4-0.1 2.8 0.1v4.7q-0.3-0.1-0.5-0.1c-7.6-0.2-11.6 8.4-11.3 15.7 0.5 7.9 5.8 10 11.8 10.1v4.5q-1.7 0-3.3-0.2l-3.2-0.6c-3.4-1-6.3-2.8-8.2-5.7-0.9 0.2-1.8 0.2-2.5 0.2-2.7 0-5.3-0.3-8-0.7-0.2 3.6-0.9 7.1-2.8 9.6-2.8 3.5-7.6 5.1-11.6 2.8-4-2.2-5.2-7.2-5.8-11.4q0-0.3-0.1-0.6-0.3 0.1-0.7 0.2c-7.8 0.9-17.3 1.2-25.3-0.2-1.3 6-2.8 12-5.4 17.3-7.4 15.6-24.8 15.2-39.7 15.9q-31.8 1.5-63.6 1.2-16.2-0.1-32.4-0.6c-8.7-0.3-17.9-0.1-26.7-1.3-11.3 36.5-40.7 66.4-79.4 75-44.1 9.8-90.1-10.7-113-49.5-4.7-7.9-8.3-16.4-10.8-25-5.5 0.9-11.7 0.2-17.1 0.2-6.8 0.1-13.7 0.4-20.5 0.1-10.7-0.3-21.7-2.1-30.6-8.5-8.4-6.2-12-14.9-12.7-25.2-0.5-6.8-0.5-13.8-0.7-20.6-0.2-5.4-1.1-11.6 0.3-16.9-12.5-4.4-24.3-14.2-20.5-28.7 2-8.1 9-11.4 16.4-12.6-2-11.3-2.2-23.3-3-34.8-0.9-11.5-1.4-23-2.1-34.6-1.2-23.1-3.2-46.2-4.9-69.3q-1.3-17.3-2.6-34.6c-0.7-8.9-2.2-18.5 0.4-27.3 4.5-14.7 23-20.4 36.9-17.3q0.1 0 0.2 0c7.9-1 16-1.2 24-1.3h6.5c4.1 0 8.3 0.1 12.4 0 15.8-0.1 31.6-0.1 47.4-0.2 56.5-0.3 113-0.1 169.5-0.3 28.5-0.1 57.2-0.6 85.8-0.6q0-0.1 0-0.1zm-16.7 5.8c-56.5 0.3-113-0.1-169.5 1-28.7 0.5-57.3 0.7-86 0.8q-21.8 0.1-43.6 0.2c-12.5 0-25 0.4-37.4-1.2-7.3 1.2-14.9 0.2-21.8 3.9-9.2 4.8-10.6 14.7-10.2 24.2 0.7 20.2 2.8 40.4 4.3 60.6 1.6 21 3 42 5 63 0.9 9.9 1.8 19.8 2.6 29.7 0.7 10.6 2.2 21.3 1.9 31.9 11.2-0.9 22.6-0.7 33.8-1q19.8-0.5 39.7-0.4c12.3 0 25.2-0.7 37.4 1.3 28.4-26.6 70.3-36.6 107.7-23.1 14.5 5.3 27.2 13.6 37.7 24 35.1-0.6 70.2-0.9 105.2-1.2l48.6-0.5c15-0.1 30.6-1.3 45.6 0.1 0-18.2 2.3-36.7 3.6-54.8 1.4-19.1 2.9-38.1 4.4-57.2q2.2-28.6 4.4-57.2c1.1-14.7 3.7-39.1-14.7-43.4-2.8 0.9-5.4-0.3-8.3-0.8-4.1-0.7-8.2-0.8-12.3-1.3-26 1.1-52 1.3-78.1 1.4zm-257.3 239.9c-21.9 37.1-18.6 85.5 8.2 119.2 25.9 32.6 70.1 46.6 109.8 32.8 31.4-10.9 54-37.3 62.8-68.3 0-0.6 0.2-1.2 0.5-1.7 2.3-8.6 3.5-17.6 3.6-26.6-0.4-47.5-32.4-91.3-79.5-101.7-6.5-1.5-12.9-2.2-19.4-2.3-34.7-0.4-68 18-86 48.6zm-49.9-20.8c-10.4 0.2-20.7 0.5-31 1-8 0.4-22.4-1.4-28.4 5-7.5 8 1.6 18.8 9 22.6 8.7 4.6 19 4.2 28.6 4 19.8-0.4 39.7-1 59.6-1 3.8-8.9 8.7-17.3 14.9-25.1q2.8-3.5 5.8-6.7c-9.1 0.6-18.4 0-27.5-0.1q-15.5 0-31 0.3zm396.2 0.9c-6.6 0-13.2 0.1-19.9 0.1-54.2 0.1-108.4 0.3-162.6 0 8.2 9.3 14.8 19.9 19.5 31.4 31.6 1 63.2 1.2 94.9 0.9q20.9-0.2 41.9-0.8c13.2-0.4 27.5 0.5 40.5-2.1 7.1-1.4 14.6-5.3 16.3-13 1.6-7.1-4.1-12.3-10.2-14.6-4.8-1.8-10.1-2-15.2-2q-2.6 0-5.2 0.1zm-396 38c-12.2 0.3-24.9 1.4-37.1 0.3-2.3-0.2-4.7-0.6-7.1-1.3 0.8 3.5 0.7 7.2 0.9 10.7 0.4 5.8 0.5 11.6 0.8 17.3 0.4 12.2 1.4 23 12.7 29.9 10 6.1 22 6.1 33.4 5.8 5.7-0.1 11.5-0.3 17.2-0.4 3.4-0.1 7-0.5 10.5-0.3-4.7-20.9-3.3-43 3.9-63.1-11.7 0.5-23.4 0.8-35.2 1.1zm377.2 0q-24.7 0.8-49.3 1c-30.9 0.3-61.8-0.3-92.7-1.5 4 11.4 6.1 23.5 6.2 35.8-0.1 9.2-1.3 18.3-3.5 27 8.3-0.2 16.8 0.6 25 0.8q13.7 0.3 27.4 0.4c18.3 0 36.6-0.3 54.9-0.8 8.7-0.2 17.4-0.4 26.1-1 8.4-0.6 17.9-2.4 22.2-10.5 3.9-7.3 5.3-16.6 6.7-24.7 1.7-9.1 2.5-18.2 3-27.4-8.7 1-17.8 0.6-26 0.9zm56 16.4c0 2.9 0.9 5.1 0.3 7.8 0.4 3.4 0.8 6.8 1.2 10.3 0.4 3.2 0.7 8.1 3.9 9.9 6.7 3.9 9.9-8.2 10-11.9 0.1-3.8-0.3-7.7-0.7-11.5-0.3-0.5-0.4-1.1-0.2-1.6-0.3-3.5-0.5-8.8-2.9-11.6-1.7-2-3.2-2.7-4.7-2.7-4.2 0.1-7 7.4-6.9 11.3zm-27.6 10.4q-0.3 2-0.7 4c7.8-1.3 16.8-1.1 24.3-0.3q0.2 0 0.3 0.1-0.3-3.8-0.4-7.6c-3.9 0.6-7.9 0.1-11.7 0-3.8-0.1-7.3-0.1-10.9-1.2q-0.4 2.5-0.9 5zm45 1c-0.1 1.3-0.2 2.9-0.2 4.4 2.8-0.4 5.5-0.7 8.3-0.6q0.1 0 0.3 0-0.6-2.1-0.6-4.7 0-2.2 0.5-4.4c-1.5 0.2-3.2 0.1-4.7 0.1-1.1-0.1-2.2-0.2-3.3-0.5-0.1 2.2-0.2 4.1-0.3 5.7z"/>
		<path id="path6269" class="s0" d="m533.3 310.7c-0.5-8.1 4.5-17.7 13.6-15.3-0.3 8.4 0.3 16.9 1.8 25.3-7.4 0.6-15-0.6-15.4-10z"/>
		<path id="path6271" class="s6" d="m547 306.2q0.4 7.3 1.7 14.5c-7.4 0.6-15-0.6-15.4-10q-0.1-0.7-0.1-1.4c4.7-0.6 9.3-1.8 13.8-3.1z"/>
	</g>
</svg>